<svg width="36" height="36" viewBox="0 0 36 36" fill="none" xmlns="http://www.w3.org/2000/svg">
<rect x="1" y="1" width="34" height="34" rx="17" stroke="#1846C7" stroke-width="2"/>
<g clip-path="url(#clip0_5_255)">
<path fill-rule="evenodd" clip-rule="evenodd" d="M32.8771 18.0568C32.8771 22.3451 31.0578 26.2084 28.1489 28.9173C28.2496 26.8784 27.9539 23.4316 24.9801 22.3073C22.077 21.3591 20.8703 20.1799 20.8703 20.1799L20.7731 20.2725C19.911 21.084 18.9575 21.561 18.0888 21.561H18.0069C17.1383 21.561 16.1848 21.084 15.3226 20.2725L15.2254 20.1799C15.2254 20.1799 14.0188 21.359 11.1156 22.3073C8.1426 23.4179 7.85138 26.8936 7.95142 28.9352C5.03118 26.2257 3.20374 22.3546 3.20374 18.0568C3.20374 9.86266 9.84638 3.22002 18.0405 3.22002C26.2346 3.22002 32.8771 9.86266 32.8771 18.0568ZM22.5126 13.9567L22.5486 13.9957C22.7164 14.1411 22.6714 14.7604 22.4931 15.3635C22.3797 15.7871 22.2423 15.9935 22.1529 16.1279C22.1148 16.185 22.0854 16.2292 22.0704 16.2714C21.5588 18.6732 19.874 20.7239 18.0614 20.7239C16.2488 20.7239 14.47 18.6732 13.9585 16.2714C13.9434 16.2291 13.914 16.185 13.8759 16.1277C13.7865 15.9934 13.6491 15.787 13.5358 15.3635C13.3575 14.7605 13.3172 14.1809 13.4804 13.9957L13.5162 13.9567C13.7574 13.7359 13.7386 13.7486 13.7386 13.7486C13.7386 13.7486 13.318 11.6264 13.6552 10.6228C14.2141 8.93166 16.183 8.0388 16.5596 7.89391C17.1379 7.64168 17.6368 7.74255 17.6368 7.74255C17.6615 7.7427 18.0474 7.81993 18.0473 7.82111C18.6816 7.94598 21.8442 9.02014 22.3737 10.6228C22.7109 11.6264 22.2904 13.7486 22.2904 13.7486C22.2904 13.7486 22.2715 13.7359 22.5126 13.9567Z" fill="#B6B6B6"/>
<path d="M18.0404 32.5284C26.0329 32.5284 32.512 26.0492 32.512 18.0568C32.512 10.0643 26.0329 3.58509 18.0404 3.58509C10.0479 3.58509 3.56873 10.0643 3.56873 18.0568C3.56873 26.0492 10.0479 32.5284 18.0404 32.5284Z" stroke="#B6B6B6" stroke-width="0.778"/>
</g>
<defs>
<clipPath id="clip0_5_255">
<rect width="30" height="30" fill="white" transform="translate(3 3)"/>
</clipPath>
</defs>
</svg>
