<svg width="157" height="45" viewBox="0 0 157 45" fill="none" xmlns="http://www.w3.org/2000/svg">
<path d="M9.1458 14.0959L14.675 21.789L9.84999 21.078C9.10181 26.6597 12.8202 31.8334 18.1438 32.6178C19.7682 32.8572 21.3687 32.6631 22.8054 32.101L24.8235 34.909C22.669 35.9328 20.2168 36.3625 17.6917 35.9904C10.5829 34.9429 5.63423 28.0575 6.63331 20.6041L1.80831 19.8931L9.1458 14.0959Z" fill="#EE215B"/>
<path d="M20.8562 12.3822C26.1798 13.1666 29.8982 18.3403 29.15 23.9219L24.325 23.211L29.8542 30.9041L37.1917 25.1069L32.3667 24.3959C33.3658 16.9425 28.4171 10.0571 21.3083 9.00958C18.7832 8.6375 16.3311 9.06719 14.1765 10.091L16.1947 12.899C17.6313 12.3369 19.2318 12.1428 20.8562 12.3822Z" fill="url(#paint0_linear_5_350)"/>
<path d="M56.3369 28.0527C56.3369 29.3223 56.0293 30.4258 55.4141 31.3633C54.7988 32.3008 53.9004 33.0234 52.7188 33.5312C51.5469 34.0391 50.1211 34.293 48.4414 34.293C47.6992 34.293 46.9717 34.2441 46.2588 34.1465C45.5557 34.0488 44.877 33.9072 44.2227 33.7217C43.5781 33.5264 42.9629 33.2871 42.377 33.0039V28.7852C43.3926 29.2344 44.4473 29.6396 45.541 30.001C46.6348 30.3623 47.7188 30.543 48.793 30.543C49.5352 30.543 50.1309 30.4453 50.5801 30.25C51.0391 30.0547 51.3711 29.7861 51.5762 29.4443C51.7812 29.1025 51.8838 28.7119 51.8838 28.2725C51.8838 27.7354 51.7031 27.2764 51.3418 26.8955C50.9805 26.5146 50.4824 26.1582 49.8477 25.8262C49.2227 25.4941 48.5146 25.1377 47.7236 24.7568C47.2256 24.5225 46.6836 24.2393 46.0977 23.9072C45.5117 23.5654 44.9551 23.1504 44.4277 22.6621C43.9004 22.1738 43.4658 21.583 43.124 20.8896C42.792 20.1865 42.626 19.3467 42.626 18.3701C42.626 17.0908 42.9189 15.9971 43.5049 15.0889C44.0908 14.1807 44.9258 13.4873 46.0098 13.0088C47.1035 12.5205 48.3926 12.2764 49.877 12.2764C50.9902 12.2764 52.0498 12.4082 53.0557 12.6719C54.0713 12.9258 55.1309 13.2969 56.2344 13.7852L54.7695 17.3154C53.7832 16.915 52.8994 16.6074 52.1182 16.3926C51.3369 16.168 50.541 16.0557 49.7305 16.0557C49.1641 16.0557 48.6807 16.1484 48.2803 16.334C47.8799 16.5098 47.5771 16.7637 47.3721 17.0957C47.167 17.418 47.0645 17.7939 47.0645 18.2236C47.0645 18.7314 47.2109 19.1611 47.5039 19.5127C47.8066 19.8545 48.2559 20.1865 48.8516 20.5088C49.457 20.8311 50.209 21.207 51.1074 21.6367C52.2012 22.1543 53.1338 22.6963 53.9053 23.2627C54.6865 23.8193 55.2871 24.4785 55.707 25.2402C56.127 25.9922 56.3369 26.9297 56.3369 28.0527ZM73.3291 34L72.0693 28.2725C72.001 27.9307 71.8887 27.4277 71.7324 26.7637C71.5762 26.0898 71.4053 25.3721 71.2197 24.6104C71.0439 23.8389 70.8779 23.126 70.7217 22.4717C70.5752 21.8174 70.4678 21.3389 70.3994 21.0361H70.2676C70.1992 21.3389 70.0918 21.8174 69.9453 22.4717C69.7988 23.126 69.6328 23.8389 69.4473 24.6104C69.2715 25.3818 69.1055 26.1094 68.9492 26.793C68.793 27.4668 68.6758 27.9795 68.5977 28.3311L67.2793 34H62.4746L57.8164 17.623H62.2695L64.1592 24.874C64.2861 25.3818 64.4082 25.9873 64.5254 26.6904C64.6426 27.3838 64.7451 28.0576 64.833 28.7119C64.9307 29.3564 65.0039 29.8691 65.0527 30.25H65.1699C65.1895 29.9668 65.2285 29.5908 65.2871 29.1221C65.3555 28.6533 65.4287 28.1699 65.5068 27.6719C65.5947 27.1641 65.6729 26.71 65.7412 26.3096C65.8193 25.8994 65.8779 25.6211 65.917 25.4746L67.9385 17.623H72.8604L74.7793 25.4746C74.8477 25.7578 74.9355 26.207 75.043 26.8223C75.1602 27.4375 75.2627 28.0723 75.3506 28.7266C75.4385 29.3711 75.4873 29.8789 75.4971 30.25H75.6143C75.6533 29.918 75.7217 29.4248 75.8193 28.7705C75.917 28.1162 76.0293 27.4326 76.1562 26.7197C76.293 25.9971 76.4297 25.3818 76.5664 24.874L78.5293 17.623H82.9092L78.1924 34H73.3291ZM92.2695 17.2861C94.4668 17.2861 96.1514 17.7646 97.3232 18.7217C98.4951 19.6787 99.0811 21.1338 99.0811 23.0869V34H95.9609L95.0967 31.7734H94.9795C94.5107 32.3594 94.0322 32.8379 93.5439 33.209C93.0557 33.5801 92.4941 33.8535 91.8594 34.0293C91.2246 34.2051 90.4531 34.293 89.5449 34.293C88.5781 34.293 87.709 34.1074 86.9375 33.7363C86.1758 33.3652 85.5752 32.7988 85.1357 32.0371C84.6963 31.2656 84.4766 30.2891 84.4766 29.1074C84.4766 27.3691 85.0869 26.0898 86.3076 25.2695C87.5283 24.4395 89.3594 23.9805 91.8008 23.8926L94.6426 23.8047V23.0869C94.6426 22.2275 94.418 21.5977 93.9688 21.1973C93.5195 20.7969 92.8945 20.5967 92.0938 20.5967C91.3027 20.5967 90.5264 20.709 89.7646 20.9336C89.0029 21.1582 88.2412 21.4414 87.4795 21.7832L86 18.7656C86.8691 18.3066 87.8408 17.9453 88.915 17.6816C89.999 17.418 91.1172 17.2861 92.2695 17.2861ZM94.6426 26.4121L92.9141 26.4707C91.4688 26.5098 90.4629 26.7686 89.8965 27.2471C89.3398 27.7256 89.0615 28.3555 89.0615 29.1367C89.0615 29.8203 89.2617 30.3086 89.6621 30.6016C90.0625 30.8848 90.585 31.0264 91.2295 31.0264C92.1865 31.0264 92.9922 30.7432 93.6465 30.1768C94.3105 29.6104 94.6426 28.8047 94.6426 27.7598V26.4121ZM112.807 17.3154C114.652 17.3154 116.142 18.0332 117.274 19.4688C118.417 20.9043 118.988 23.0088 118.988 25.7822C118.988 27.6377 118.72 29.2002 118.183 30.4697C117.646 31.7295 116.903 32.6816 115.956 33.3262C115.009 33.9707 113.92 34.293 112.689 34.293C111.898 34.293 111.22 34.1953 110.653 34C110.087 33.7949 109.604 33.5361 109.203 33.2236C108.803 32.9014 108.456 32.5596 108.163 32.1982H107.929C108.007 32.5889 108.065 32.9893 108.104 33.3994C108.144 33.8096 108.163 34.21 108.163 34.6006V41.207H103.695V17.623H107.328L107.958 19.7471H108.163C108.456 19.3076 108.812 18.9023 109.232 18.5312C109.652 18.1602 110.155 17.8672 110.741 17.6523C111.337 17.4277 112.025 17.3154 112.807 17.3154ZM111.371 20.8896C110.59 20.8896 109.97 21.0508 109.511 21.373C109.052 21.6953 108.715 22.1787 108.5 22.8232C108.295 23.4678 108.183 24.2832 108.163 25.2695V25.7529C108.163 26.8076 108.261 27.7012 108.456 28.4336C108.661 29.166 108.998 29.7227 109.467 30.1035C109.945 30.4844 110.6 30.6748 111.43 30.6748C112.113 30.6748 112.675 30.4844 113.114 30.1035C113.554 29.7227 113.881 29.166 114.096 28.4336C114.32 27.6914 114.433 26.7881 114.433 25.7236C114.433 24.1221 114.184 22.916 113.686 22.1055C113.188 21.2949 112.416 20.8896 111.371 20.8896ZM131.791 17.3154C133.637 17.3154 135.126 18.0332 136.259 19.4688C137.401 20.9043 137.973 23.0088 137.973 25.7822C137.973 27.6377 137.704 29.2002 137.167 30.4697C136.63 31.7295 135.888 32.6816 134.94 33.3262C133.993 33.9707 132.904 34.293 131.674 34.293C130.883 34.293 130.204 34.1953 129.638 34C129.071 33.7949 128.588 33.5361 128.188 33.2236C127.787 32.9014 127.44 32.5596 127.147 32.1982H126.913C126.991 32.5889 127.05 32.9893 127.089 33.3994C127.128 33.8096 127.147 34.21 127.147 34.6006V41.207H122.68V17.623H126.312L126.942 19.7471H127.147C127.44 19.3076 127.797 18.9023 128.217 18.5312C128.637 18.1602 129.14 17.8672 129.726 17.6523C130.321 17.4277 131.01 17.3154 131.791 17.3154ZM130.355 20.8896C129.574 20.8896 128.954 21.0508 128.495 21.373C128.036 21.6953 127.699 22.1787 127.484 22.8232C127.279 23.4678 127.167 24.2832 127.147 25.2695V25.7529C127.147 26.8076 127.245 27.7012 127.44 28.4336C127.646 29.166 127.982 29.7227 128.451 30.1035C128.93 30.4844 129.584 30.6748 130.414 30.6748C131.098 30.6748 131.659 30.4844 132.099 30.1035C132.538 29.7227 132.865 29.166 133.08 28.4336C133.305 27.6914 133.417 26.7881 133.417 25.7236C133.417 24.1221 133.168 22.916 132.67 22.1055C132.172 21.2949 131.4 20.8896 130.355 20.8896ZM139.32 17.623H144.213L147.304 26.8369C147.401 27.1299 147.484 27.4277 147.553 27.7305C147.621 28.0332 147.68 28.3457 147.729 28.668C147.777 28.9902 147.816 29.3271 147.846 29.6787H147.934C147.992 29.1514 148.07 28.6582 148.168 28.1992C148.275 27.7402 148.407 27.2861 148.563 26.8369L151.596 17.623H156.386L149.457 36.0947C149.037 37.2275 148.49 38.1699 147.816 38.9219C147.143 39.6836 146.366 40.2549 145.487 40.6357C144.618 41.0166 143.661 41.207 142.616 41.207C142.108 41.207 141.669 41.1777 141.298 41.1191C140.927 41.0703 140.609 41.0166 140.346 40.958V37.4131C140.551 37.4619 140.81 37.5059 141.122 37.5449C141.435 37.584 141.762 37.6035 142.104 37.6035C142.729 37.6035 143.266 37.4717 143.715 37.208C144.164 36.9443 144.54 36.5879 144.843 36.1387C145.146 35.6992 145.385 35.2158 145.561 34.6885L145.824 33.8828L139.32 17.623Z" fill="#333333"/>
<defs>
<linearGradient id="paint0_linear_5_350" x1="18.0008" y1="10.3178" x2="32.5427" y2="24.5623" gradientUnits="userSpaceOnUse">
<stop stop-color="#087AEE"/>
<stop offset="1" stop-color="#1846C7"/>
</linearGradient>
</defs>
</svg>
