<svg width="18" height="18" viewBox="0 0 18 18" fill="none" xmlns="http://www.w3.org/2000/svg">
<g clip-path="url(#clip0_5_411)">
<g clip-path="url(#clip1_5_411)">
<path d="M2.45193 0.923077C1.04959 0.923077 -0.0865288 2.05919 -0.0865288 3.46154V15.4615C-0.0865288 16.8639 1.04959 18 2.45193 18H6.14424C6.52659 18 6.83655 17.69 6.83655 17.3077C6.83655 16.9254 6.52659 16.6154 6.14424 16.6154H2.45193C1.81428 16.6154 1.29809 16.0992 1.29809 15.4615V3.46154C1.29809 2.82389 1.81428 2.30769 2.45193 2.30769H3.60578V2.53846C3.60578 2.92081 3.91574 3.23077 4.29809 3.23077C4.68043 3.23077 4.99039 2.92081 4.99039 2.53846V2.30769H7.29809V2.53846C7.29809 2.92081 7.60806 3.23077 7.99039 3.23077C8.37273 3.23077 8.6827 2.92081 8.6827 2.53846V2.30769H10.9904V2.53846C10.9904 2.92081 11.3004 3.23077 11.6827 3.23077C12.065 3.23077 12.375 2.92081 12.375 2.53846V2.30769H13.5289C14.1665 2.30769 14.6827 2.82389 14.6827 3.46154V6.23077C14.6827 6.61312 14.9927 6.92308 15.375 6.92308C15.7573 6.92308 16.0673 6.61312 16.0673 6.23077V3.46154C16.0673 2.05919 14.9312 0.923077 13.5289 0.923077H12.375V0.692308C12.375 0.30996 12.065 0 11.6827 0C11.3004 0 10.9904 0.30996 10.9904 0.692308V0.923077H8.6827V0.692308C8.6827 0.30996 8.37273 0 7.99039 0C7.60806 0 7.29809 0.30996 7.29809 0.692308V0.923077H4.99039V0.692308C4.99039 0.30996 4.68043 0 4.29809 0C3.91574 0 3.60578 0.30996 3.60578 0.692308V0.923077H2.45193Z" fill="black"/>
<path fill-rule="evenodd" clip-rule="evenodd" d="M18.1689 8.97702C17.2777 8.0844 15.8329 8.08644 14.9427 8.97665L13.7593 10.1536L9.6175 14.3056C9.31409 14.609 9.14424 15.0195 9.14424 15.4477V17.3077C9.14424 17.69 9.45421 18 9.83655 18H11.6965C12.1241 18 12.5347 17.8306 12.8376 17.5279L16.9907 13.3849L18.1672 12.2028C19.0592 11.3122 19.0593 9.86779 18.1689 8.97702ZM17.1891 9.9553C16.8397 9.60545 16.2721 9.60527 15.9217 9.95567L15.2314 10.6466L16.4981 11.9132L17.1888 11.2231C17.5392 10.8733 17.539 10.3052 17.1891 9.9553ZM10.5967 15.2844C10.553 15.3282 10.5289 15.3867 10.5289 15.4477V16.6154H11.6965C11.7581 16.6154 11.8164 16.591 11.8587 16.5487L15.5186 12.8919L14.2526 11.626L10.5967 15.2844Z" fill="black"/>
<path d="M4.29809 5.53847C3.91574 5.53847 3.60578 5.84843 3.60578 6.23078C3.60578 6.61312 3.91574 6.92308 4.29809 6.92308H11.6827C12.065 6.92308 12.375 6.61312 12.375 6.23078C12.375 5.84843 12.065 5.53847 11.6827 5.53847H4.29809Z" fill="black"/>
<path d="M4.29809 9.23077C3.91574 9.23077 3.60578 9.54074 3.60578 9.92308C3.60578 10.3054 3.91574 10.6154 4.29809 10.6154H8.91347C9.29581 10.6154 9.60578 10.3054 9.60578 9.92308C9.60578 9.54074 9.29581 9.23077 8.91347 9.23077H4.29809Z" fill="black"/>
<path d="M4.29809 12.9231C3.91574 12.9231 3.60578 13.233 3.60578 13.6154C3.60578 13.9977 3.91574 14.3077 4.29809 14.3077H7.06732C7.44966 14.3077 7.75963 13.9977 7.75963 13.6154C7.75963 13.233 7.44966 12.9231 7.06732 12.9231H4.29809Z" fill="black"/>
</g>
</g>
<defs>
<clipPath id="clip0_5_411">
<rect width="18" height="18" fill="white"/>
</clipPath>
<clipPath id="clip1_5_411">
<rect width="18" height="18" fill="white"/>
</clipPath>
</defs>
</svg>
