<svg width="18" height="18" viewBox="0 0 18 18" fill="none" xmlns="http://www.w3.org/2000/svg">
<g clip-path="url(#clip0_5_385)">
<path d="M17.7349 16.5728L14.4727 13.3107C17.0358 10.0485 16.9193 5.38835 13.8902 2.35922C10.7446 -0.786407 5.50187 -0.786407 2.35624 2.35922C-0.789389 5.50485 -0.789389 10.7476 2.35624 13.8932C5.38537 16.9223 10.0456 17.0388 13.3077 14.4757L16.5698 17.7379C16.9193 18.0874 17.5019 18.0874 17.8514 17.7379C18.0844 17.3884 18.0844 16.9223 17.7349 16.5728ZM3.63779 12.7282C1.07469 10.1651 1.07469 6.08738 3.63779 3.64077C6.2009 1.19417 10.2786 1.07767 12.7252 3.64077C15.1718 6.08738 15.2883 10.1651 12.8417 12.7282C12.8417 12.7282 12.8417 12.7282 12.7252 12.8447C12.7252 12.8447 12.7252 12.8447 12.6087 12.9612C10.1621 15.1748 6.08439 15.1748 3.63779 12.7282Z" fill="black"/>
</g>
<defs>
<clipPath id="clip0_5_385">
<rect width="18" height="18" fill="white"/>
</clipPath>
</defs>
</svg>
