<svg width="18" height="18" viewBox="0 0 18 18" fill="none" xmlns="http://www.w3.org/2000/svg">
<path fill-rule="evenodd" clip-rule="evenodd" d="M5.67263 3.78158C4.415 3.78158 3.39548 4.8011 3.39548 6.05874C3.39548 7.31636 4.415 8.33589 5.67263 8.33589C6.93026 8.33589 7.9498 7.31636 7.9498 6.05874C7.9498 4.8011 6.93026 3.78158 5.67263 3.78158ZM2.14953 6.05874C2.14953 4.11298 3.72688 2.53563 5.67263 2.53563C7.61838 2.53563 9.19576 4.11298 9.19576 6.05874C9.19576 8.00446 7.61838 9.58184 5.67263 9.58184C3.72688 9.58184 2.14953 8.00446 2.14953 6.05874ZM13.1515 5.42693C12.3482 5.42693 11.697 6.07812 11.697 6.88141C11.697 7.68467 12.3482 8.33589 13.1515 8.33589C13.9547 8.33589 14.6059 7.68467 14.6059 6.88141C14.6059 6.07813 13.9547 5.42693 13.1515 5.42693ZM10.451 6.88141C10.451 5.39 11.6601 4.18098 13.1515 4.18098C14.6429 4.18098 15.8519 5.39 15.8519 6.88141C15.8519 8.37285 14.6429 9.58184 13.1515 9.58184C11.6601 9.58184 10.451 8.37285 10.451 6.88141ZM3.99654 12.0748C2.51244 12.0748 1.30972 13.2775 1.30972 14.7616V15.6067C1.30972 15.9507 1.0308 16.2297 0.68674 16.2297C0.342682 16.2297 0.0637627 15.9507 0.0637627 15.6067V14.7616C0.0637627 12.5894 1.82432 10.8289 3.99654 10.8289H7.34876C9.52095 10.8289 11.2815 12.5894 11.2815 14.7616V15.6067C11.2815 15.9507 11.0026 16.2297 10.6585 16.2297C10.3145 16.2297 10.0355 15.9507 10.0355 15.6067V14.7616C10.0355 13.2775 8.83285 12.0748 7.34876 12.0748H3.99654ZM12.5285 11.4519C12.5285 11.1077 12.8074 10.8289 13.1515 10.8289H14.0672C16.2395 10.8289 18 12.5894 18 14.7616V15.6067C18 15.9507 17.7211 16.2297 17.377 16.2297C17.033 16.2297 16.754 15.9507 16.754 15.6067V14.7616C16.754 13.2775 15.5513 12.0748 14.0672 12.0748H13.1515C12.8074 12.0748 12.5285 11.7959 12.5285 11.4519Z" fill="black"/>
</svg>
